<?xml version="1.0" encoding="UTF-8" standalone="no"?>
<!DOCTYPE svg PUBLIC "-//W3C//DTD SVG 1.1//EN" "http://www.w3.org/Graphics/SVG/1.1/DTD/svg11.dtd">
<svg width="100%" height="100%" viewBox="0 0 1080 702" version="1.1" xmlns="http://www.w3.org/2000/svg" xmlns:xlink="http://www.w3.org/1999/xlink" xml:space="preserve" xmlns:serif="http://www.serif.com/" style="fill-rule:evenodd;clip-rule:evenodd;stroke-linecap:round;stroke-linejoin:round;stroke-miterlimit:1.5;">
    <g transform="matrix(1,0,0,1,-469.751,-75.81)">
        <path d="M805.404,268.992L789.94,263.441L764.032,260.916L718.79,261.255L660.981,268.179L597.446,288.578L554.953,313.206L517.601,347.642L496.121,379.305L480.844,415.67L475.426,447.899L472.73,490.454L474.438,524.426L485.027,572.789L499.44,609.392L511.857,633.085L536.935,667.759L567.569,696.23L595.365,718.243L630.904,740.725L677.625,762.504L718.483,771.072L757.976,774.282L805.377,769.976L840.427,762.113L879.778,751.066L907.416,736.062L927.291,719.317L950.261,692.776L976.635,657.762L998.52,622.142L1008.85,604.479L1012.89,592.74L1000.76,594.007L929.959,612.96C929.959,612.96 864.055,626.553 862.94,626.079C861.825,625.605 819.019,629.208 819.019,629.208L774.206,625.241L712.017,603.167L678.207,582.665L656.626,559.013L634.442,519.006L627.028,502.157L610.658,386.528L805.404,268.992Z" style="fill:rgb(255,139,252);fill-opacity:0.5;"/>
    </g>
    <g transform="matrix(1,0,0,1,-469.751,-75.81)">
        <path d="M1076.05,260.904L1544.54,258.253L1546.54,334.764L1530.31,334.783L1529.84,356.253L1545.99,357.076L1544.74,388.426L1528.59,388.763L1528.27,413.749L1545.43,413.727L1544.44,468.5L1165.74,468.797L1165.63,444.572L1153.37,445.009L1153.42,468.251L1004.17,470.05L923.492,293.722C923.492,293.722 1021.92,252.792 1019.96,249.46C1018,246.129 1048.2,260.906 1048.2,260.906L1076.05,260.904Z" style="fill:rgb(51,123,45);stroke:black;stroke-width:6px;"/>
    </g>
    <g transform="matrix(1,0,0,1,-469.751,-75.81)">
        <rect x="1048.41" y="281.915" width="69.319" height="112.219" style="fill:rgb(69,69,69);stroke:black;stroke-width:6px;"/>
    </g>
    <g transform="matrix(1,0,0,1,-585.795,-75.81)">
        <rect x="1048.41" y="281.915" width="69.319" height="112.219" style="fill:rgb(69,69,69);stroke:black;stroke-width:6px;"/>
    </g>
    <g transform="matrix(0.339153,0,0,0.36224,187.785,169.703)">
        <rect x="1048.41" y="281.915" width="69.319" height="112.219" style="fill:rgb(69,69,69);stroke:black;stroke-width:17.1px;"/>
    </g>
    <g transform="matrix(1,0,0,1,-469.751,-75.81)">
        <path d="M1513.81,467.357L1513.68,447.787L1173.51,449.816L1173.72,467.522L1513.81,467.357Z" style="fill:rgb(255,252,171);stroke:black;stroke-width:2px;"/>
    </g>
    <g transform="matrix(1,0,0,1,-838.805,-73.7924)">
        <path d="M1513.81,467.357L1513.68,447.787L1387.96,448.537L1389.51,467.417L1513.81,467.357Z" style="fill:rgb(255,252,171);stroke:black;stroke-width:2px;"/>
    </g>
    <g transform="matrix(1,0,0,1,-381.7,-75.81)">
        <rect x="1048.41" y="281.915" width="69.319" height="112.219" style="fill:rgb(69,69,69);stroke:black;stroke-width:6px;"/>
    </g>
    <g transform="matrix(1,0,0,1,-291.877,-75.81)">
        <rect x="1048.41" y="281.915" width="69.319" height="112.219" style="fill:rgb(69,69,69);stroke:black;stroke-width:6px;"/>
    </g>
    <g transform="matrix(1,0,0,1,-202.055,-75.81)">
        <rect x="1048.41" y="281.915" width="69.319" height="112.219" style="fill:rgb(69,69,69);stroke:black;stroke-width:6px;"/>
    </g>
    <g transform="matrix(1,0,0,1,-113.295,-75.81)">
        <rect x="1048.41" y="281.915" width="69.319" height="112.219" style="fill:rgb(69,69,69);stroke:black;stroke-width:6px;"/>
    </g>
    <g transform="matrix(1,0,0,1,-469.751,-75.81)">
        <path d="M1076.05,260.904L1544.54,258.253L1546.54,334.764L1530.31,334.783L1529.84,356.253L1545.99,357.076L1544.74,388.426L1528.59,388.763L1528.27,413.749L1545.43,413.727L1544.44,468.5L1165.74,468.797L1165.63,444.572L1153.37,445.009L1153.42,468.251L1004.17,470.05L923.492,293.722C923.492,293.722 1021.92,252.792 1019.96,249.46C1018,246.129 1048.2,260.906 1048.2,260.906L1076.05,260.904Z" style="fill:none;stroke:black;stroke-width:6px;"/>
    </g>
    <g transform="matrix(1,0,0,1,-469.751,-75.81)">
        <path d="M866.581,413.19L866.478,413.537L857.769,449.024L845.906,470.215L825.597,486.082L810.233,488.248L795.913,494.207C795.913,494.207 787.062,493.17 785.723,492.534C784.384,491.897 780.184,482.858 780.184,482.858L782.161,471.288L789.255,456.305L798.834,439.988L814.332,421.56L827.111,409.702L766.508,404.685L733.121,409.062L704.196,418.405L701.056,438.179L694.15,460.077L685.29,478.574L675.555,488.21L665.024,492.036L656.633,489.695L650.696,491.226C650.696,491.226 642.664,487.123 642.416,486.3C642.168,485.476 644.747,457.977 644.747,457.977L639.786,461.742L632.718,473.904L627.914,490.255L627.847,501.903L625.489,511.802L630.658,555.189L642.889,585.782L659.486,610.315L687.606,635.546L709.398,646.888L730.939,656.812L756.702,663.531L785.388,669.975L826.454,675.292L868.11,674.56L890.796,674.641L866.317,688.798L825.407,702.143L785.391,707.14L758.967,707.776L721.331,700.236L700.322,692.681L660.261,672.46L639.974,657.645L595.105,620.199L556.021,576.265L537.145,544.671L524.919,504.643L521.645,455.617L533.798,401.018L549.285,370.321L581.825,331.031L615.978,307.851L646.541,292.847L684.404,281.909L718.899,274.963L746.107,271.334L778.196,269.751L809.142,269.441L843.636,272.145L870.993,275.43C873.328,269.952 876.144,264.818 879.638,260.15C880.898,258.468 877.26,255.995 877.589,253.844C878.289,249.274 882.014,244.712 884.074,242.106C884.912,241.045 885.031,249.961 885.785,249.013C890.837,242.657 893.902,238.919 893.902,238.919L931.207,205.61C931.207,205.61 945.108,195.661 960.331,189.137C998.99,172.568 993.529,178.652 1033.27,165.406C1056.3,157.728 1084.81,162.357 1103.92,172.98C1115.06,179.168 1125.57,186.314 1130.69,192.941C1134.35,197.687 1136.13,197.961 1136.81,200.059C1147.16,232.057 1115.14,224.334 1055.42,270.743C1041.74,281.383 1026.7,292.913 1011.04,310.388C1003.81,318.456 997.869,329.354 989.322,339.216C988.08,340.65 971.587,367.179 971.763,368.051C964.577,386.916 975.398,400.643 986.156,413.325C1000.39,430.106 1019.86,445.793 1039.94,461.161C1057.01,474.225 1072,486.776 1077.63,505.411C1086.76,521.598 1079.82,536.136 1079.82,536.136L1067.01,541.927L1049.57,542.335C1049.57,542.335 1039.17,540.109 1020.81,530.574C1013.59,526.82 1005.97,520.238 995.158,514.835C967.236,500.873 950.073,475.742 932.273,461.1C908.29,441.373 890.8,416.467 890.8,416.467L866.581,413.19Z" style="fill:rgb(255,212,254);"/>
    </g>
    <g transform="matrix(1,0,0,1,-469.751,-75.81)">
        <path d="M978.307,180.073C976.842,175.006 977.441,171.223 979.808,157.237C981.457,147.493 982.919,147.832 984.482,137.732C984.554,137.269 988.576,121.489 991.044,119.844C992.421,118.926 992.675,119.618 993.022,121.237C994.06,126.081 993.647,132.878 992.085,140.513C990.736,147.108 987.995,156.015 987.449,164.204C987.189,168.099 985.204,169.935 984.527,176.159C984.347,177.822 984.28,177.795 983.628,179.26" style="fill:rgb(251,212,255);"/>
    </g>
    <g transform="matrix(1,0,0,1,-469.751,-75.81)">
        <path d="M944.54,194.307C943.316,192.202 942.947,182.343 943.427,179.128C945.746,163.593 947.2,152.329 949.256,143.423C950.67,137.297 952.069,131.94 952.684,126.401C952.815,125.227 961.158,93.683 964.039,93.323C967.512,92.889 966.77,95.228 967.024,100.038C967.484,108.789 962.303,147.216 960.734,156.584C959.872,161.731 960.282,168.438 957.132,177.416C955.192,182.945 951.941,191.769 951.448,192.755" style="fill:rgb(251,212,255);"/>
    </g>
    <g transform="matrix(0.617837,0,0,0.617837,-156.208,80.5004)">
        <path d="M904.687,190.728C907.32,191.226 909.054,193.768 908.556,196.401C908.058,199.034 905.516,200.768 902.883,200.27C846.355,189.582 719.076,177.011 599.668,206.489C481.206,235.733 370.409,306.537 345.559,462.735C316.763,643.737 447.549,740.499 538.49,813.798C641.195,896.579 804.504,917.798 942.906,829.727C945.167,828.288 948.17,828.956 949.609,831.217C951.048,833.478 950.38,836.481 948.119,837.92C805.846,928.455 637.974,906.456 532.396,821.359C439.264,746.294 306.479,646.572 335.968,461.21C361.557,300.369 475.358,227.174 597.34,197.061C718.376,167.181 847.389,179.894 904.687,190.728Z"/>
    </g>
    <g transform="matrix(0.617837,0,0,0.617837,-156.755,78.4537)">
        <path d="M943.693,833.318C945.991,831.939 948.976,832.685 950.355,834.983C951.734,837.281 950.988,840.266 948.69,841.645C944.272,844.296 933.186,846.707 917.331,848.009C882.593,850.862 823.734,849.379 764.611,839.31C712.469,830.429 488.043,796.429 502.309,559.606C505.853,500.775 551.709,459.768 602.531,434.439C604.93,433.243 607.848,434.22 609.043,436.619C610.239,439.017 609.262,441.935 606.863,443.13C559.108,466.931 515.333,504.91 512.003,560.19C498.217,789.031 715.857,821.155 766.242,829.736C824.426,839.646 882.35,841.138 916.536,838.33C930.22,837.206 939.88,835.606 943.693,833.318Z"/>
    </g>
    <g transform="matrix(0.617837,0,0,0.617837,-156.755,78.4537)">
        <path d="M632.135,431.847C629.636,432.814 626.821,431.571 625.854,429.072C624.886,426.573 626.129,423.758 628.629,422.791C658.4,411.264 688.134,404.534 710.987,401.637C739.461,398.028 792.173,402.338 835.092,407.196C837.755,407.497 839.673,409.904 839.371,412.566C839.07,415.229 836.663,417.147 834,416.845C791.879,412.078 740.153,407.729 712.208,411.271C689.988,414.088 661.081,420.64 632.135,431.847Z"/>
    </g>
    <g transform="matrix(0.617837,0,0,0.617837,-156.755,78.4537)">
        <path d="M858.178,419.744C855.519,419.408 853.633,416.977 853.969,414.318C854.305,411.659 856.736,409.773 859.395,410.109C867.264,411.103 932.893,418.648 936.513,419.175C939.165,419.561 941.004,422.028 940.618,424.68C940.232,427.332 937.765,429.171 935.113,428.785C931.502,428.259 866.028,420.736 858.178,419.744Z"/>
    </g>
    <g transform="matrix(0.617837,0,0,0.617837,-156.208,80.5004)">
        <path d="M817.104,180.437C819.663,181.232 821.096,183.955 820.302,186.514C819.507,189.074 816.784,190.507 814.225,189.712C734.848,165.072 598.574,164.73 481.222,211.264C364.417,257.581 266.369,350.58 262.719,513.019C258.096,718.742 343.982,838.438 515.387,941.106C577.823,978.504 635.483,998.626 751.715,994.068C765.5,993.527 840.617,984.347 928.093,951.076C959.774,939.026 995.589,903.612 1028.31,862.968C1073.63,806.666 1112.84,740.137 1126.21,709.627C1093.03,715.261 1032.36,734.924 965.101,750.436C890.852,767.559 808.683,779.566 745.973,763.103C664.212,741.637 613.964,718.717 578.882,686.963C543.695,655.113 523.657,614.33 502.764,556.772C501.85,554.253 503.153,551.465 505.672,550.551C508.191,549.636 510.978,550.939 511.893,553.458C532.139,609.234 551.302,648.9 585.399,679.763C619.603,710.723 668.724,732.781 748.439,753.71C809.824,769.826 890.238,757.734 962.919,740.973C1036.63,723.974 1102.49,702.109 1133.33,698.816C1134.99,698.639 1136.63,699.328 1137.66,700.64C1138.7,701.953 1138.98,703.704 1138.42,705.278C1129.15,731.229 1086.3,806.411 1035.87,869.058C1001.91,911.244 964.428,947.646 931.545,960.153C842.56,993.998 766.118,1003.22 752.096,1003.77C633.204,1008.43 574.261,987.69 510.397,949.437C335.626,844.753 248.297,722.563 253.01,512.801C256.766,345.684 357.473,249.887 477.643,202.236C597.267,154.802 736.19,155.32 817.104,180.437Z"/>
    </g>
    <g transform="matrix(0.617837,0,0,0.617837,-156.208,80.5004)">
        <path d="M831.264,404.558C833.609,403.261 836.566,404.113 837.862,406.458C839.159,408.804 838.307,411.761 835.962,413.057C824.175,419.573 771.463,467.505 761.063,519.503C759.037,529.63 759.803,536.295 763.334,539.974C766.576,543.352 771.86,543.573 777.835,542.203C792.654,538.804 811.212,524.954 821.965,506.72C848.986,460.902 849.68,448.005 853.191,411.14C853.445,408.472 855.817,406.513 858.485,406.767C861.153,407.021 863.112,409.393 862.858,412.061C859.2,450.473 858.484,463.913 830.33,511.653C818.121,532.356 796.832,547.809 780.006,551.668C770.153,553.928 761.674,552.269 756.328,546.699C751.272,541.43 748.64,532.099 751.54,517.598C762.593,462.337 818.737,411.483 831.264,404.558Z"/>
    </g>
    <g transform="matrix(0.489076,-0.0562234,0.0545543,0.474557,-212.896,199.905)">
        <path d="M830.642,408.056C833.605,406.417 837.302,407.567 838.892,410.622C840.482,413.676 839.366,417.486 836.402,419.125C824.737,425.574 772.563,468.356 762.27,519.818C760.383,529.254 760.874,535.492 764.164,538.92C767.162,542.044 772.07,542.073 777.597,540.805C792.155,537.466 810.376,523.838 820.94,505.925C847.85,460.296 856.387,439.513 859.884,402.8C860.212,399.35 863.196,396.824 866.544,397.163C869.891,397.501 872.342,400.577 872.013,404.027C868.34,442.59 859.621,464.52 831.355,512.449C818.956,533.472 797.331,549.147 780.244,553.066C769.94,555.429 761.09,553.578 755.499,547.753C750.199,542.231 747.293,532.482 750.333,517.282C761.493,461.486 817.993,415.048 830.642,408.056Z"/>
    </g>
    <g transform="matrix(0.489076,-0.0562234,0.0545543,0.474557,-226.688,199.192)">
        <path d="M779.248,456.32C781.309,453.581 785.14,453.08 787.798,455.203C790.457,457.326 790.942,461.275 788.882,464.014C777.031,479.775 766.279,499.775 762.27,519.818C760.197,530.184 760.943,536.677 765.076,539.72C769.263,542.804 775.745,541.87 782.845,539.203C786.005,538.016 789.506,539.696 790.658,542.953C791.809,546.21 790.179,549.817 787.019,551.004C775.417,555.362 764.833,554.979 757.99,549.94C751.087,544.856 746.87,534.599 750.333,517.282C754.708,495.409 766.316,473.52 779.248,456.32Z"/>
    </g>
    <g transform="matrix(0.617837,0,0,0.617837,-132.143,75.3141)">
        <path d="M759.676,549.441C757.416,548.002 756.749,544.998 758.188,542.737C759.627,540.476 762.63,539.809 764.891,541.248C769.641,544.272 776.79,543.2 784.539,540.043C797.939,534.585 812.796,522.268 821.965,506.72C844.864,467.891 846.165,452.913 848.499,427.268C848.742,424.599 851.106,422.63 853.775,422.873C856.444,423.116 858.414,425.48 858.171,428.148C855.718,455.097 854.393,470.851 830.33,511.653C820.024,529.128 803.263,542.903 788.202,549.037C776.973,553.611 766.561,553.823 759.676,549.441Z"/>
    </g>
    <g transform="matrix(0.617837,0,0,0.617837,-156.208,80.5004)">
        <path d="M842.152,235.913C843.011,235.668 843.907,236.166 844.153,237.025C844.398,237.884 843.9,238.78 843.041,239.026C841.402,239.494 839.802,240.92 838.174,242.999C835.42,246.517 832.734,251.857 830.202,258.315C820.175,283.89 812.721,326.805 814.84,345.874C814.938,346.762 814.298,347.563 813.41,347.662C812.522,347.76 811.721,347.12 811.622,346.232C809.467,326.83 816.987,283.154 827.188,257.134C829.858,250.325 832.722,244.712 835.626,241.003C837.77,238.265 839.992,236.53 842.152,235.913Z"/>
    </g>
    <g transform="matrix(0.617837,0,0,0.617837,-156.208,80.5004)">
        <path d="M794.145,232.109C794.653,231.375 795.662,231.191 796.397,231.7C797.131,232.208 797.315,233.217 796.806,233.952C779.342,259.177 774.476,276.067 772.166,333.825C772.13,334.718 771.377,335.413 770.484,335.378C769.592,335.342 768.896,334.588 768.932,333.696C771.282,274.927 776.375,257.776 794.145,232.109Z"/>
    </g>
    <g transform="matrix(0.617837,0,0,0.617837,-156.208,80.5004)">
        <path d="M714.156,322.706C714.451,323.31 714.348,324.059 713.846,324.561C713.215,325.193 712.189,325.193 711.557,324.561L711.201,324.054L710.98,323.345C710.813,322.482 710.717,320.343 710.822,317.184C711.321,302.184 716.113,263.01 735.785,230.551C736.248,229.787 737.244,229.543 738.008,230.006C738.772,230.469 739.016,231.465 738.553,232.229C719.239,264.098 714.547,302.564 714.058,317.292C713.965,320.072 714.13,322.361 714.156,322.706Z"/>
    </g>
    <g transform="matrix(1,0,0,1,-472.874,-66.942)">
        <path d="M864.033,325.73C863.935,327.383 862.513,328.645 860.861,328.547C859.208,328.449 857.945,327.028 858.043,325.375C858.347,320.256 858.932,313.769 860.041,306.443C860.289,304.805 861.819,303.678 863.456,303.926C865.094,304.173 866.221,305.704 865.973,307.341C864.896,314.457 864.328,320.758 864.033,325.73Z"/>
    </g>
    <g transform="matrix(1,0,0,1,-472.874,-66.942)">
        <path d="M865.973,307.341C865.726,308.978 864.195,310.106 862.558,309.858C860.921,309.61 859.793,308.08 860.041,306.443C861.015,300.009 862.031,296.104 863.976,288.733C864.398,287.132 866.041,286.175 867.642,286.597C869.243,287.019 870.2,288.662 869.777,290.263C867.902,297.372 866.913,301.136 865.973,307.341Z"/>
    </g>
    <g transform="matrix(1,0,0,1,-472.874,-66.942)">
        <path d="M873.642,283.139C873.142,284.718 871.455,285.593 869.876,285.094C868.298,284.594 867.422,282.906 867.922,281.328C871.104,271.281 874.301,259.577 879.779,248.684C880.522,247.204 882.327,246.607 883.807,247.351C885.286,248.095 885.883,249.9 885.139,251.379C879.812,261.974 876.737,273.368 873.642,283.139Z"/>
    </g>
    <g transform="matrix(1.00246,0,0,1.01291,-475.684,-68.9412)">
        <path d="M890.79,241.453C889.826,242.78 887.955,243.083 886.613,242.129C885.272,241.176 884.966,239.323 885.929,237.996C904.27,212.735 917.984,203.2 932.764,193.502C945.271,185.297 984.227,164.825 1026.08,156.031C1054.35,150.092 1083.92,149.529 1107.73,161.279C1114.05,164.402 1127.36,172.505 1136.29,183.015C1142.62,190.472 1146.69,199.137 1145.27,208.079C1145.02,209.693 1143.48,210.798 1141.85,210.544C1140.22,210.29 1139.1,208.773 1139.36,207.158C1140.52,199.863 1136.87,192.91 1131.7,186.826C1123.38,177.025 1110.95,169.492 1105.05,166.58C1082.4,155.395 1054.24,156.172 1027.32,161.826C986.4,170.424 948.3,190.416 936.072,198.439C921.782,207.815 908.521,217.03 890.79,241.453Z"/>
    </g>
    <g transform="matrix(1,0,0,1,-469.751,-75.81)">
        <path d="M1040.82,189.639C1007.63,203.621 1043.43,241.343 1060.03,222.929C1064.44,218.042 1063.89,204.488 1060.9,198.416C1056.1,188.678 1049.39,186.026 1040.82,189.639Z" style="fill:white;"/>
        <path d="M1039.65,186.874C1044.82,184.699 1049.42,184.542 1053.45,186.262C1057.35,187.923 1060.8,191.427 1063.59,197.09C1065.57,201.111 1066.65,208.094 1066.09,214.21C1065.69,218.64 1064.38,222.594 1062.26,224.938C1054.47,233.576 1043.09,232.006 1034.71,225.571C1027.34,219.91 1022.59,210.558 1024.71,201.982C1026.13,196.276 1030.54,190.714 1039.65,186.874ZM1041.98,192.403C1035.16,195.275 1031.59,199.159 1030.54,203.426C1028.95,209.809 1032.88,216.6 1038.37,220.813C1044.28,225.352 1052.31,227.014 1057.81,220.92C1059.22,219.354 1059.85,216.626 1060.12,213.666C1060.57,208.698 1059.81,203.007 1058.2,199.742C1056.2,195.666 1053.9,192.976 1051.1,191.78C1048.43,190.643 1045.4,190.965 1041.98,192.403Z"/>
    </g>
    <g transform="matrix(1,0,0,1,-469.751,-75.81)">
        <path d="M1039.78,223.366C1039.06,222.303 1041.36,206.937 1055.67,196.713C1057.5,195.406 1057.63,196.171 1059.51,197.298C1060.57,197.933 1067.64,217.047 1057.67,225.202C1057.31,225.502 1050.87,228.089 1048.57,226.873C1045.51,225.255 1045.33,226.12 1041.88,225.787C1041.51,225.75 1039.94,222.954 1039.3,222.696"/>
        <path d="M1039.17,222.211C1039.19,221.892 1039.22,221.519 1039.28,221.098C1039.97,216.228 1043.77,204.596 1055.38,196.306C1056.01,195.856 1056.47,195.634 1056.86,195.559C1057.29,195.475 1057.65,195.55 1058.04,195.751C1058.48,195.973 1058.97,196.388 1059.77,196.869C1059.9,196.947 1060.13,197.206 1060.37,197.664C1060.79,198.464 1061.39,199.977 1061.95,201.926C1063.05,205.798 1063.99,211.398 1063.04,216.512C1062.39,219.982 1060.88,223.227 1057.99,225.589C1057.93,225.636 1057.77,225.734 1057.51,225.853C1056.68,226.227 1054.72,226.967 1052.77,227.385C1051.04,227.754 1049.33,227.841 1048.33,227.315C1046.62,226.407 1045.87,226.326 1044.85,226.347C1044.11,226.362 1043.24,226.42 1041.84,226.284L1041.62,226.22L1041.43,226.094C1041.29,225.975 1041.1,225.744 1040.88,225.449C1040.54,224.993 1040.12,224.369 1039.74,223.865C1039.59,223.853 1039.45,223.778 1039.36,223.647C1039.31,223.563 1039.25,223.428 1039.21,223.241C1039.17,223.203 1039.14,223.173 1039.11,223.16C1038.85,223.057 1038.73,222.766 1038.83,222.51C1038.89,222.356 1039.02,222.249 1039.17,222.211ZM1040.17,222.808C1040.55,223.246 1041.01,223.907 1041.4,224.468C1041.64,224.799 1041.95,225.182 1042.05,225.3C1043.33,225.416 1044.14,225.361 1044.83,225.347C1046,225.324 1046.85,225.397 1048.8,226.431C1049.64,226.877 1051.1,226.72 1052.56,226.407C1054.19,226.057 1055.84,225.47 1056.75,225.089C1057.07,224.957 1057.38,224.801 1057.38,224.801C1060.06,222.597 1061.45,219.563 1062.05,216.329C1062.98,211.375 1062.06,205.951 1060.99,202.201C1060.45,200.34 1059.89,198.893 1059.49,198.129C1059.39,197.944 1059.25,197.748 1059.22,197.708C1058.58,197.32 1058.14,196.976 1057.77,196.747C1057.52,196.59 1057.31,196.489 1057.05,196.541C1056.76,196.596 1056.43,196.785 1055.96,197.12C1046.07,204.185 1041.99,213.734 1040.67,219.19C1040.34,220.568 1040.19,221.679 1040.16,222.415C1040.16,222.552 1040.16,222.691 1040.17,222.808Z"/>
    </g>
    <g transform="matrix(1,0,0,1,-469.751,-75.81)">
        <path d="M1136.51,215.387C1137.59,214.137 1139.49,214.005 1140.74,215.091C1141.99,216.177 1142.12,218.073 1141.03,219.323C1133.45,228.045 1120.99,235.111 1105.52,243.541C1070.64,262.548 1020.14,289.073 978.208,361.991C968.148,379.487 975.242,396.831 988.12,412.542C1008.63,437.559 1043.81,458.483 1055.38,469.59C1072.82,486.32 1082.69,494.865 1085.77,529.665C1085.91,531.314 1084.69,532.772 1083.05,532.918C1081.4,533.064 1079.94,531.844 1079.79,530.194C1076.9,497.572 1067.57,489.602 1051.23,473.919C1039.56,462.722 1004.15,441.564 983.48,416.346C968.906,398.567 961.622,378.799 973.006,359.001C1009.64,295.281 1052.68,266.283 1086.63,247.098C1108.65,234.647 1126.81,226.54 1136.51,215.387Z"/>
    </g>
    <g transform="matrix(1,0,0,1,-469.751,-75.81)">
        <path d="M888.936,418.156C887.964,416.816 888.262,414.938 889.602,413.966C890.942,412.993 892.82,413.292 893.792,414.632C904.811,429.814 915.22,440.807 922.63,448.216C984.123,509.71 1005.24,518.382 1013.9,523.617C1016.52,525.196 1035.78,536.429 1053.71,539.214C1064.63,540.909 1075.14,539.562 1080.1,529.543C1080.84,528.059 1082.64,527.451 1084.12,528.186C1085.61,528.921 1086.21,530.722 1085.48,532.206C1079.27,544.738 1066.44,547.263 1052.79,545.143C1033.88,542.207 1013.56,530.418 1010.8,528.752C1002.03,523.453 980.632,514.704 918.387,452.459C910.82,444.892 900.19,433.662 888.936,418.156Z"/>
    </g>
    <g transform="matrix(1,0,0,1,-469.751,-75.81)">
        <path d="M876.214,255.878C876.081,255.636 876.168,255.332 876.41,255.199C876.651,255.065 876.956,255.153 877.089,255.394C877.089,255.394 877.668,256.481 877.703,257.022C877.738,257.568 877.292,258.667 877.292,258.667C877.185,258.921 876.891,259.04 876.637,258.932C876.383,258.824 876.264,258.53 876.372,258.276C876.372,258.276 876.73,257.484 876.705,257.085C876.679,256.68 876.214,255.878 876.214,255.878Z"/>
    </g>
    <g transform="matrix(1,0,0,1,-469.751,-75.81)">
        <path d="M881.879,257.889C881.957,257.625 882.236,257.474 882.5,257.552C882.765,257.631 882.916,257.909 882.838,258.174C882.838,258.174 882.573,259.061 882.391,259.47C882.206,259.885 881.736,260.738 881.736,260.738C881.603,260.98 881.299,261.068 881.057,260.935C880.815,260.801 880.727,260.497 880.861,260.255C880.861,260.255 881.304,259.453 881.477,259.063C881.642,258.693 881.879,257.889 881.879,257.889Z"/>
    </g>
    <g transform="matrix(1,0,0,1,-474.652,-87.2203)">
        <path d="M861.129,351.812C848.118,350.699 836.611,355.726 831.962,349.751C825.592,341.565 829.14,337.216 825.163,333.005C820.474,328.04 801.008,326.151 796.333,320.581C791.831,315.216 796.533,304.711 793.068,299.06C789.603,293.409 782.926,292.075 779.998,284.224C776.199,274.04 775.884,257.541 782.174,253.707C788.464,249.873 803.526,256.624 812.035,264.361C818.063,269.841 816.396,276.181 822.071,281.244C827.746,286.307 837.277,285.81 841.343,289.886C844.994,293.545 842.29,302.995 844.707,306.201C847.124,309.408 856.082,309.206 858.064,312.94C860.902,318.289 858.364,338.282 860.162,342.336" style="fill:none;stroke:black;stroke-width:3px;"/>
    </g>
    <g transform="matrix(0.58104,0.813875,-0.813875,0.58104,256.247,-785.793)">
        <path d="M864.017,354.879C854.34,351.426 842.372,348.453 836.646,344.173C831.81,340.558 833.314,332.016 829.071,327.722C824.132,322.725 811.988,319.63 807.012,314.19C802.369,309.113 802.899,300.464 799.215,295.08C795.552,289.726 787.74,287.722 784.908,281.885C782.062,276.019 777.922,262.019 782.141,259.884C786.36,257.748 804.159,265.252 810.222,269.072C814.747,271.922 814.389,279.407 818.521,282.801C823.236,286.673 834.034,287.893 838.509,292.306C842.853,296.592 842.031,305.299 845.366,309.281C848.547,313.079 854.938,312.777 858.518,316.2C862.236,319.755 865.534,325.971 868.98,331.252" style="fill:none;stroke:black;stroke-width:3px;"/>
    </g>
    <g transform="matrix(0.379097,0.53101,-0.587778,0.419625,382.657,-493.185)">
        <path d="M857.644,349.989C850.912,347.81 844.236,345.617 839.995,342.81C834.817,339.384 833.761,331.791 829.071,327.722C823.573,322.952 811.988,319.63 807.012,314.19C802.369,309.113 802.899,300.464 799.215,295.08C795.552,289.726 787.74,287.722 784.908,281.885C782.062,276.019 777.922,262.019 782.141,259.884C786.36,257.748 804.159,265.252 810.222,269.072C814.747,271.922 814.389,279.407 818.521,282.801C823.236,286.673 833.883,288.232 838.509,292.306C842.721,296.016 842.942,303.263 846.277,307.245C849.523,311.121 855.08,312.493 858.518,316.2C860.651,318.499 862.721,321.546 864.78,324.739" style="fill:none;stroke:black;stroke-width:4.36px;"/>
    </g>
    <g transform="matrix(0.76719,0.64142,-0.64142,0.76719,-34.6774,-682.708)">
        <path d="M893.281,377.948C880.615,371.925 864.398,378.669 855.295,371.719C847.641,365.875 846.094,354.024 838.676,348.087C831.257,342.149 814.578,338.571 809.55,332.915C804.664,327.418 804.881,311.563 800.331,305.785C794.001,297.746 782.627,298.067 777.011,288.261C771.609,278.829 767.629,260.433 773.565,255.077C779.502,249.721 798.258,254.071 807.111,259.825C815.964,265.579 817.141,277.231 824.52,284.031C830.808,289.825 841.578,286.649 846.754,291.779C851.931,296.91 854.24,315.121 858.988,320.62C863.737,326.118 875.71,323.72 881.184,329.514C887.108,335.784 888.75,360.133 893.198,369.708" style="fill:none;stroke:black;stroke-width:3px;"/>
    </g>
    <g transform="matrix(1.02012,0.383233,-0.410913,1.09381,-348.893,-496.374)">
        <path d="M871.345,351.627C870.44,350.747 866.106,349.485 865.65,349.429C854.151,348.023 838.632,353.422 831.962,349.751C826.684,346.847 829.824,336.821 825.163,333.005C819.225,328.143 801.682,326.238 796.333,320.581C791.348,315.309 795.791,305.119 793.068,299.06C790.367,293.048 781.537,290.632 779.998,284.224C778.182,276.665 776.834,257.017 782.174,253.707C787.514,250.396 805.386,259.771 812.035,264.361C817.423,268.08 817.186,276.989 822.071,281.244C826.956,285.498 837.571,285.726 841.343,289.886C845.074,293.999 841.664,302.605 844.707,306.201C847.75,309.798 857.684,311.439 861.558,314.978C865.432,318.517 863.744,335.927 866.527,341.25" style="fill:none;stroke:black;stroke-width:2.66px;"/>
    </g>
    <g transform="matrix(1,0,0,1,-469.751,-75.81)">
        <path d="M859.083,292.319C861.094,292.881 862.397,293.647 862.956,295.603L860.981,293.957C860.443,293.688 859.803,293.127 859.083,292.319ZM838.443,286.256C838.625,289.905 838.347,293.535 840.762,295.85C842.929,297.929 849.107,297.163 852.721,301.696C854.056,303.369 853.339,306.036 854.379,309.445C855.687,313.729 853.587,319.545 854.716,323.88C855.853,328.244 854.501,330.771 854.501,330.771C854.501,330.771 842.77,316.891 842.112,315.38C840.778,312.321 823.506,285.576 811.656,276.212C806.872,272.431 802.449,272.228 801.124,276.411C799.701,280.902 800.473,282.06 801.541,284.157C802.28,285.609 802.642,287.919 804.649,290.417C806.867,293.178 809.9,295.25 811.95,298.14C814.257,301.394 816.901,304.923 819.102,308.251C827.751,321.325 845.641,333.08 852.817,338.399L853.148,339.042C852.082,340.322 847.328,340.776 842.135,341.225C837.256,341.648 832.017,342.194 828.252,339.591C826.609,338.455 825.827,335.841 824.966,333.947C819.82,322.628 821.239,321.452 816.042,318.726C811.52,316.353 793.856,313.245 790.871,309.024C790.471,308.458 789.986,304.964 789.817,300.612C789.681,297.134 790.049,293.188 788.603,289.168C787.3,285.546 784.276,282.863 781.092,280.052C779.041,278.242 777.338,276.06 775.871,273.649C772.412,267.968 771.626,261.269 771.846,255.197C772.34,241.581 781.768,232.144 804.973,251.7C813.339,258.751 812.55,265.31 816.788,269.4C818.33,270.888 821.451,272.172 825.099,273.461C826.034,268.393 828.054,262.667 826.749,260.273C823.933,255.11 821.781,256.787 818.086,252.127C814.329,247.391 809.014,243.881 807.987,243.486C807.67,243.365 798.201,237.614 801.294,226.48C803.881,217.165 810.195,217.62 806.231,205.962C805.204,202.942 804.077,202.475 802.82,199.444C800.273,193.303 799.133,192.331 800.595,183.352C802.402,172.249 807.358,164.357 809.937,160.755C812.057,157.793 810.302,157.458 816.899,156.884C820.734,156.55 826.434,163.06 832.234,169.231C837.938,175.301 843.78,180.991 843.097,185.774C841.454,197.276 843.285,198.877 845.072,202.451C847.365,207.039 850.689,209.633 853.648,211.664C855.117,203.181 856.465,194.049 844.864,175.394C841.511,170.004 842.487,164.895 846.328,157.414C848.671,152.849 852.122,148.005 853.101,142.55C853.723,139.086 852.557,135.593 851.286,131.841C850.21,128.663 849.282,125.257 846.985,121.975C846.078,120.679 846.253,104.032 853.209,95.531C856.565,91.429 861.423,80.451 871.211,87.18C874.28,89.289 878.211,92.399 881.568,98.854C881.896,99.485 885.263,103.644 887.048,108.724C888.633,113.232 888.694,118.671 888.459,119.922C885.9,133.569 879.056,136.357 895.005,154.759C901.298,162.02 890.781,176.845 888.58,187.544C887.822,191.226 889.098,194.658 890.955,196.8C897.321,204.147 899.818,207.079 899.158,212.613C898.857,215.134 897.078,218.151 896.162,222.449C895.213,226.899 892.818,229.826 891.274,232.601C888.456,237.667 886.303,240.807 885.601,241.744C884.804,242.806 885.094,246.634 884.578,247.892C883.433,241.465 884.645,235.976 884.528,231.337C884.188,217.886 885.17,211.075 883.241,205.286C878.998,192.558 879.918,151.179 871.863,117.346C870.948,113.507 872.645,110.798 868.006,106.932C867.751,106.72 867.945,106.634 866.303,103.158C855.042,134.983 863.244,146.595 863.763,173.08C863.924,181.321 867.666,181.474 869.163,215.892C869.635,226.745 873.863,241.342 875.723,252.503L874.562,248.291C871.361,246.691 860.894,238.575 856.45,233.61C855.947,234.37 855.671,234.59 855.715,235.038C856.322,241.314 858.864,241.658 862.071,245.007C863.081,246.062 865.085,246.733 865.919,248.863C867.386,252.614 872.263,253.893 870.856,259.944C869.536,265.621 868.586,267.906 867.755,270.849C867.243,272.666 867.382,274.789 865.697,277.949C865.421,278.466 866.745,278.571 864.999,285.117C862.721,279.876 861.394,274.255 859.746,268.012C859.026,265.284 859.126,261.581 857.58,259.176C855.828,256.451 853.018,251.112 852.642,250.399C851.011,247.298 850.341,239.353 846.937,230.589C845.922,227.978 846.025,223.672 844.084,221.433C838.691,215.21 837.802,201.547 830.011,191.922C823.455,183.824 818.011,177.646 817.752,185.006C816.784,212.52 827.605,219.278 831.292,236.827C832.584,242.975 850.977,283.233 859.083,292.319C855.927,291.437 851.026,291.059 844.523,287.374C843.127,286.583 841.015,286.567 838.443,286.256Z" style="fill:rgb(240,99,255);fill-opacity:0.5;"/>
    </g>
    <g transform="matrix(1,0,0,1,-469.751,-75.81)">
        <path d="M939.947,199.237C938.057,198.756 931.767,181.363 932.193,170.988C932.275,168.986 933.653,167.841 934.218,166.479C935.503,163.386 938.012,160.932 939.489,157.927C941.363,154.113 938.864,142.32 939.021,133.655C939.086,130.081 940.496,126.79 941.44,125.204C944.32,120.373 949.077,116.635 951.159,111.41C951.514,110.521 950.143,102.524 951.589,95.869C952.319,92.512 954.63,89.806 956.489,87.897C960.045,84.245 962.233,79.662 964.869,78.294C967.148,77.111 970.119,78.913 970.283,78.806C971.888,85.457 975.576,91.487 977.18,98.138C977.887,101.069 978.678,104.749 977.516,108.119C976.39,111.383 973.511,114.782 972.302,118.314C971.121,121.763 971.579,125.336 973.009,129.287C975.17,135.258 977.57,141.651 973.418,146.418C968.504,152.061 965.286,155.593 965.175,159.392C965.023,164.575 968.876,170.003 965.685,179.65C965.081,181.476 964.267,183.139 963.697,184.976C962.574,188.596 961.334,187.429 952.31,191.297C956.366,174.733 960.25,166.349 963.204,143.041C964.717,131.106 967.637,115.486 966.787,92.376C966.118,93.067 961.782,92.892 959.433,99.976C959.143,100.849 944.903,165.35 944.387,175.19C943.372,194.54 945.434,195.851 944.166,194.583" style="fill:rgb(240,99,255);fill-opacity:0.5;"/>
    </g>
    <g transform="matrix(1,0,0,1,-469.751,-75.81)">
        <path d="M971.299,183.789C967.702,171.649 971.982,167.645 973.676,160.34C974.401,157.213 973.954,153.745 973.358,148.344C972.061,136.587 983.69,134.993 982.715,125.669C982.094,119.73 984.569,116.306 986.74,113.75C989.389,110.632 992.183,108.916 995.836,106.877C995.882,107.007 1000.31,114.736 1000.31,114.736C1000.31,114.736 1001.53,128.448 1000.61,129.794C997.056,135.015 996.618,135.159 998.087,141.393C1000.61,152.09 994.998,152.873 992.63,160.613C992.17,162.118 992.729,166.229 992.425,168.343C990.166,184.072 985.364,178.275 985.105,177.221C984.399,174.36 991.998,156.04 992.534,140.793C992.68,136.651 993.778,129.274 993.477,124.589C993.262,121.229 991.661,119.8 991.559,119.408C980.562,135.713 980.061,160.408 978.881,165.416C977.101,172.975 978.01,172.058 978.512,179.72" style="fill:rgb(240,99,255);fill-opacity:0.5;"/>
    </g>
    <g transform="matrix(1,0,0,1,-474.652,-87.2203)">
        <path d="M861.129,351.812C848.118,350.699 836.611,355.726 831.962,349.751C825.592,341.565 829.14,337.216 825.163,333.005C820.474,328.04 801.008,326.151 796.333,320.581C791.831,315.216 796.533,304.711 793.068,299.06C789.603,293.409 782.926,292.075 779.998,284.224C776.199,274.04 775.884,257.541 782.174,253.707C788.464,249.873 803.526,256.624 812.035,264.361C818.063,269.841 816.396,276.181 822.071,281.244C827.746,286.307 837.277,285.81 841.343,289.886C844.994,293.545 842.29,302.995 844.707,306.201C847.124,309.408 856.082,309.206 858.064,312.94C860.902,318.289 858.364,338.282 860.162,342.336" style="fill:none;stroke:black;stroke-width:3px;"/>
    </g>
    <g transform="matrix(0.58104,0.813875,-0.813875,0.58104,256.247,-785.793)">
        <path d="M864.017,354.879C854.34,351.426 842.372,348.453 836.646,344.173C831.81,340.558 833.314,332.016 829.071,327.722C824.132,322.725 811.988,319.63 807.012,314.19C802.369,309.113 802.899,300.464 799.215,295.08C795.552,289.726 787.74,287.722 784.908,281.885C782.062,276.019 777.922,262.019 782.141,259.884C786.36,257.748 804.159,265.252 810.222,269.072C814.747,271.922 814.389,279.407 818.521,282.801C823.236,286.673 834.034,287.893 838.509,292.306C842.853,296.592 842.031,305.299 845.366,309.281C848.547,313.079 854.938,312.777 858.518,316.2C862.236,319.755 865.534,325.971 868.98,331.252" style="fill:none;stroke:black;stroke-width:3px;"/>
    </g>
    <g transform="matrix(0.379097,0.53101,-0.587778,0.419625,382.657,-493.185)">
        <path d="M857.644,349.989C850.912,347.81 844.236,345.617 839.995,342.81C834.817,339.384 833.761,331.791 829.071,327.722C824.932,324.13 817.342,321.36 811.72,317.888" style="fill:none;stroke:black;stroke-width:4.36px;"/>
    </g>
    <g transform="matrix(0.379097,0.53101,-0.587778,0.419625,382.657,-493.185)">
        <path d="M804.172,309.366C802.344,304.629 801.892,298.992 799.215,295.08C795.552,289.726 787.74,287.722 784.908,281.885C782.062,276.019 777.922,262.019 782.141,259.884C786.36,257.748 804.159,265.252 810.222,269.072C814.747,271.922 814.389,279.407 818.521,282.801C823.236,286.673 833.883,288.232 838.509,292.306C842.721,296.016 842.942,303.263 846.277,307.245C849.523,311.121 855.08,312.493 858.518,316.2C860.651,318.499 862.721,321.546 864.78,324.739" style="fill:none;stroke:black;stroke-width:4.36px;"/>
    </g>
    <g transform="matrix(0.76719,0.64142,-0.64142,0.76719,-34.6774,-682.708)">
        <path d="M893.281,377.948C883.676,373.38 872.028,376.155 862.99,374.732" style="fill:none;stroke:black;stroke-width:3px;"/>
    </g>
    <g transform="matrix(0.76719,0.64142,-0.64142,0.76719,-34.6774,-682.708)">
        <path d="M846.645,359.446C844.459,355.175 842.248,350.946 838.676,348.087C831.257,342.149 814.578,338.571 809.55,332.915C804.664,327.418 804.881,311.563 800.331,305.785C794.001,297.746 782.627,298.067 777.011,288.261C771.609,278.829 767.629,260.433 773.565,255.077C779.502,249.721 798.258,254.071 807.111,259.825C815.964,265.579 817.141,277.231 824.52,284.031C830.808,289.825 841.578,286.649 846.754,291.779C851.931,296.91 854.24,315.121 858.988,320.62C863.737,326.118 875.71,323.72 881.184,329.514C887.108,335.784 888.75,360.133 893.198,369.708" style="fill:none;stroke:black;stroke-width:3px;"/>
    </g>
    <g transform="matrix(1.02012,0.383233,-0.410913,1.09381,-348.893,-496.374)">
        <path d="M871.345,351.627C870.44,350.747 866.106,349.485 865.65,349.429C859.271,348.649 851.655,349.963 844.999,350.661" style="fill:none;stroke:black;stroke-width:2.66px;"/>
    </g>
    <g transform="matrix(1.02012,0.383233,-0.410913,1.09381,-348.893,-496.374)">
        <path d="M828.741,344.284C827.94,340.283 828.101,335.411 825.163,333.005C819.225,328.143 801.682,326.238 796.333,320.581C791.348,315.309 795.791,305.119 793.068,299.06C790.367,293.048 781.537,290.632 779.998,284.224C778.182,276.665 776.834,257.017 782.174,253.707C787.514,250.396 805.386,259.771 812.035,264.361C817.423,268.08 817.186,276.989 822.071,281.244C826.956,285.498 837.571,285.726 841.343,289.886C845.074,293.999 841.664,302.605 844.707,306.201C847.75,309.798 857.684,311.439 861.558,314.978C865.432,318.517 863.744,335.927 866.527,341.25" style="fill:none;stroke:black;stroke-width:2.66px;"/>
    </g>
    <g transform="matrix(1.00246,0,0,1.01291,-475.684,-68.9412)">
        <path d="M890.79,241.453C889.826,242.78 887.955,243.083 886.613,242.129C885.272,241.176 884.966,239.323 885.929,237.996C904.27,212.735 917.984,203.2 932.764,193.502C945.271,185.297 984.227,164.825 1026.08,156.031C1054.35,150.092 1083.92,149.529 1107.73,161.279C1114.05,164.402 1127.36,172.505 1136.29,183.015C1142.62,190.472 1146.69,199.137 1145.27,208.079C1145.02,209.693 1143.48,210.798 1141.85,210.544C1140.22,210.29 1139.1,208.773 1139.36,207.158C1140.52,199.863 1136.87,192.91 1131.7,186.826C1123.38,177.025 1110.95,169.492 1105.05,166.58C1082.4,155.395 1054.24,156.172 1027.32,161.826C986.4,170.424 948.3,190.416 936.072,198.439C921.782,207.815 908.521,217.03 890.79,241.453Z"/>
    </g>
    <g transform="matrix(1,0,0,1,-469.751,-75.81)">
        <path d="M879.254,256.94C873.647,249.804 864.819,196.029 864.656,192.761C864.372,187.049 862.996,180.884 862.978,175.166C862.95,166.191 860.301,137.295 862.022,118.643C862.647,111.872 863.132,106.083 866.292,103.79C870.923,100.429 876.729,131.911 880.438,166.203C884.294,201.846 885.159,235.63 883.343,242.892" style="fill:rgb(251,212,255);"/>
        <path d="M879.647,256.631C879.818,256.848 879.78,257.163 879.563,257.334C879.346,257.504 879.031,257.466 878.861,257.249C877.158,255.083 875.138,248.676 873.173,240.667C868.635,222.167 864.271,195.077 864.157,192.785C863.873,187.066 862.496,180.893 862.478,175.167C862.45,166.185 859.802,137.265 861.524,118.597C861.903,114.494 862.236,110.749 863.127,107.909C863.752,105.917 864.656,104.359 865.998,103.385C866.649,102.913 867.316,102.92 867.995,103.381C868.526,103.743 869.08,104.441 869.626,105.462C873.614,112.921 877.959,138.631 880.935,166.149C884.799,201.874 885.648,235.735 883.828,243.013C883.761,243.281 883.49,243.444 883.222,243.377C882.954,243.31 882.791,243.038 882.858,242.771C884.67,235.525 883.788,201.819 879.941,166.256C876.983,138.907 872.708,113.347 868.744,105.934C868.297,105.096 867.868,104.504 867.432,104.208C867.144,104.012 866.862,103.994 866.586,104.194C865.4,105.055 864.633,106.45 864.081,108.208C863.208,110.993 862.891,114.666 862.52,118.689C860.8,137.325 863.45,166.197 863.478,175.164C863.496,180.875 864.872,187.032 865.156,192.736C865.269,195.019 869.624,222.002 874.144,240.429C876.062,248.246 877.985,254.517 879.647,256.631Z" style="fill:rgb(255,1,1);"/>
    </g>
    <g transform="matrix(1,0,0,1,-469.751,-75.81)">
        <path d="M861.868,294.336C842.52,276.432 796.032,154.811 826.991,186.88C832.284,192.362 846.106,228.195 850.138,240.37C851.656,244.953 852.691,249.692 854.317,254.238C860.928,272.731 860.02,271.932 866.291,290.745" style="fill:rgb(251,212,255);"/>
        <path d="M862.208,293.969C862.411,294.156 862.423,294.473 862.235,294.675C862.048,294.878 861.731,294.89 861.529,294.703C857.44,290.919 852.136,282.54 846.613,271.95C833.783,247.348 819.714,210.799 816.722,192.646C816.162,189.254 815.991,186.493 816.27,184.555C816.475,183.13 816.938,182.123 817.618,181.567C818.341,180.975 819.327,180.833 820.609,181.298C822.26,181.898 824.49,183.568 827.351,186.533C828.959,188.198 831.356,192.62 834.017,198.339C840.158,211.539 847.787,231.679 850.613,240.212C852.129,244.792 853.163,249.527 854.787,254.07C861.401,272.568 860.492,271.769 866.765,290.587C866.852,290.849 866.711,291.132 866.449,291.22C866.187,291.307 865.904,291.165 865.816,290.903C859.547,272.096 860.456,272.894 853.846,254.406C852.219,249.856 851.182,245.114 849.663,240.527C846.845,232.016 839.235,211.927 833.11,198.761C830.514,193.181 828.2,188.852 826.632,187.227C823.921,184.419 821.832,182.807 820.267,182.238C819.405,181.925 818.737,181.943 818.251,182.341C817.721,182.775 817.42,183.586 817.26,184.697C816.991,186.562 817.17,189.219 817.708,192.483C820.69,210.569 834.718,246.978 847.5,271.487C852.954,281.945 858.17,290.233 862.208,293.969Z" style="fill:rgb(255,1,1);"/>
    </g>
    <g transform="matrix(1,0,0,1,-469.751,-75.81)">
        <path d="M854.757,339.803C851.637,337.533 848.195,335.826 848.195,335.826C848.195,335.826 833.154,325.601 822.121,312.145C805.393,291.742 801.888,285.946 801.311,283.233C799.481,274.62 804.122,272.75 804.706,273.05C805.927,273.679 808.029,273.558 809.571,274.472C810.993,275.315 811.863,277.189 812.878,277.947C826.607,288.196 854.568,332.92 855.106,333.573" style="fill:rgb(251,212,255);"/>
        <path d="M804.535,273.524C804.452,273.545 803.995,273.668 803.651,273.902C802.282,274.837 800.59,277.432 801.8,283.129C802.024,284.182 802.715,285.708 804.487,288.433C807.222,292.639 812.49,299.609 822.508,311.828C833.225,324.899 847.742,334.909 848.445,335.391C848.778,335.558 852.06,337.223 855.051,339.398C855.274,339.561 855.324,339.874 855.161,340.097C854.999,340.32 854.686,340.369 854.463,340.207C851.377,337.963 847.973,336.273 847.973,336.273C847.953,336.263 847.933,336.252 847.914,336.239C847.914,336.239 832.812,325.972 821.735,312.462C811.679,300.197 806.394,293.2 803.649,288.978C801.768,286.086 801.06,284.454 800.822,283.337C799.47,276.975 801.558,274.12 803.088,273.076C803.613,272.718 804.095,272.56 804.406,272.528C804.524,272.516 804.625,272.52 804.707,272.533L804.935,272.606C805.509,272.901 806.292,273.01 807.11,273.162C808.037,273.336 809.005,273.555 809.826,274.042C810.589,274.494 811.211,275.216 811.771,275.934C812.263,276.563 812.699,277.189 813.178,277.546C826.929,287.813 854.952,332.6 855.492,333.255C855.667,333.467 855.637,333.783 855.424,333.958C855.211,334.134 854.896,334.104 854.72,333.891C854.183,333.239 826.284,288.58 812.579,278.348C812.042,277.946 811.536,277.257 810.983,276.549C810.499,275.93 809.975,275.293 809.316,274.902C808.595,274.474 807.741,274.297 806.927,274.145C806.03,273.978 805.177,273.837 804.535,273.524Z" style="fill:rgb(255,1,1);"/>
    </g>
    <g transform="matrix(0.966186,0,0,0.947304,-438.627,-56.6034)">
        <path d="M854.402,337.431C855.228,337.666 855.71,338.541 855.48,339.382C855.249,340.224 854.392,340.716 853.567,340.481C851.777,339.971 849.054,338.442 845.774,336.09C838.5,330.873 828.252,321.558 819.164,311.23C810.129,300.962 798.412,287.148 795.324,277.801C793.738,273.002 794.347,269.238 797.658,267.136C800.894,265.081 804.325,265.766 808.455,269.322C813.683,273.823 820.364,283.248 830.21,296.47C838.857,308.081 854.015,329.94 856.14,333.126C856.621,333.849 856.437,334.835 855.729,335.326C855.02,335.817 854.054,335.63 853.572,334.907C851.456,331.732 836.353,309.954 827.738,298.385C818.086,285.425 811.577,276.154 806.452,271.742C803.677,269.353 801.473,268.444 799.299,269.824C797.993,270.654 797.522,271.96 797.598,273.564C797.695,275.61 798.588,278.054 799.966,280.752C804.419,289.476 813.933,300.544 821.475,309.115C830.386,319.242 840.428,328.384 847.56,333.499C850.453,335.574 852.824,336.981 854.402,337.431Z"/>
    </g>
    <g transform="matrix(0.966186,0,0,0.947304,-429.281,-100.525)">
        <path d="M851.58,336.185C852.168,336.822 852.137,337.825 851.513,338.423C850.889,339.022 849.906,338.991 849.319,338.355C836.826,324.808 807.343,258.798 802.364,230.802C801.574,226.36 801.411,222.821 801.933,220.512C802.41,218.402 803.465,217.142 804.892,216.66C806.34,216.171 807.957,216.437 809.674,217.554C811.676,218.855 813.921,221.429 816.268,225.033C830.976,247.605 851.353,311.927 856.274,333.869C856.465,334.721 855.942,335.571 855.107,335.766C854.271,335.961 853.438,335.427 853.247,334.575C848.978,315.541 832.999,264.33 819.302,236.834C815.864,229.932 812.598,224.544 809.687,221.631C808.848,220.792 808.058,220.172 807.3,219.835C806.79,219.608 806.314,219.516 805.868,219.666C805.339,219.845 805.135,220.442 804.958,221.224C804.501,223.247 804.727,226.344 805.419,230.237C810.322,257.806 839.278,322.845 851.58,336.185Z"/>
    </g>
    <g transform="matrix(0.966186,0,0,0.947304,-413.259,-139.063)">
        <path d="M854.004,337.479C854.849,337.623 855.421,338.439 855.28,339.301C855.14,340.163 854.339,340.746 853.494,340.603C851.199,340.213 849.379,338.575 848.712,337.439C845.767,332.427 842.763,320.505 840.154,305.238C834.15,270.108 830.002,217.099 832.092,191.257C832.64,184.49 833.664,179.517 835.102,177.043C836.005,175.489 837.134,174.738 838.305,174.624C839.406,174.516 840.609,175.044 841.706,176.479C843.357,178.637 845.049,183.318 846.617,189.816C852.614,214.678 857.606,266.998 858.551,300.786C858.962,315.49 858.564,326.735 857.227,330.849C856.957,331.679 856.078,332.129 855.264,331.854C854.451,331.579 854.01,330.682 854.279,329.853C855.568,325.888 855.843,315.046 855.447,300.877C854.508,267.292 849.563,215.285 843.601,190.572C842.367,185.455 841.11,181.541 839.815,179.28C839.532,178.786 839.254,178.382 838.969,178.087C838.881,177.995 838.794,177.915 838.705,177.853C838.664,177.824 838.641,177.772 838.601,177.776C838.373,177.798 838.22,178.01 838.034,178.258C837.772,178.61 837.536,179.066 837.312,179.614C836.292,182.103 835.616,186.216 835.187,191.518C833.112,217.178 837.251,269.812 843.213,304.695C845.732,319.434 848.532,330.972 851.375,335.811C851.738,336.428 852.758,337.267 854.004,337.479Z"/>
    </g>
    <g transform="matrix(0.884131,0.389652,-0.382036,0.866852,-148.755,-507.611)">
        <path d="M829.385,233.605C829.32,233.787 829.251,234.003 829.21,234.205C828.849,235.954 828.826,238.763 829.046,242.351C830.121,259.884 837.199,295.185 844.428,318.401C847.454,328.12 850.45,335.697 853.083,338.784C853.645,339.443 853.577,340.444 852.931,341.018C852.284,341.591 851.303,341.522 850.74,340.862C847.956,337.598 844.668,329.638 841.468,319.359C834.168,295.912 827.032,260.256 825.947,242.549C825.659,237.855 825.828,234.353 826.441,232.537C826.912,231.142 827.715,230.45 828.529,230.238C829.385,230.015 830.435,230.245 831.509,231.264C832.923,232.607 834.695,235.718 836.584,240.131C843.705,256.762 853.392,292.58 857.456,315.962C859.254,326.307 859.878,334.302 858.882,337.361C858.613,338.19 857.733,338.64 856.92,338.365C856.107,338.089 855.666,337.193 855.935,336.363C856.281,335.302 856.348,333.555 856.25,331.27C856.09,327.511 855.425,322.417 854.399,316.515C850.373,293.354 840.792,257.872 833.739,241.399C832.297,238.03 830.985,235.484 829.841,234.075C829.705,233.907 829.534,233.74 829.385,233.605Z"/>
    </g>
    <g transform="matrix(0.884131,0.389652,-0.382036,0.866852,-116.263,-520.619)">
        <path d="M840.684,274.884C840.624,275.707 840.617,276.727 840.655,277.91C841.09,291.609 847.488,326.125 853.93,337.391C854.361,338.146 854.111,339.116 853.37,339.557C852.63,339.997 851.679,339.741 851.247,338.986C844.642,327.434 837.998,292.06 837.552,278.013C837.465,275.296 837.642,273.306 838.009,272.301C838.104,272.038 838.215,271.818 838.331,271.637L838.693,271.19L839.146,270.856L839.733,270.647L840.316,270.62L840.846,270.732C841.206,270.853 841.601,271.083 841.999,271.462C842.88,272.299 843.968,274.176 845.091,276.852C850.912,290.711 859.296,327.333 858.903,335.771C858.862,336.644 858.134,337.319 857.279,337.277C856.423,337.236 855.761,336.493 855.802,335.62C856.185,327.38 847.922,291.634 842.237,278.099C841.688,276.791 841.169,275.701 840.684,274.884Z"/>
    </g>
</svg>
